<svg xmlns="http://www.w3.org/2000/svg" viewBox="0 0 1200 720" preserveAspectRatio="xMidYMid slice">
  <defs>
    <linearGradient id="sky" x1="0" y1="0" x2="1" y2="1">
      <stop offset="0" stop-color="#171060"/>
      <stop offset="0.34" stop-color="#6a37d8"/>
      <stop offset="0.68" stop-color="#bb69d9"/>
      <stop offset="1" stop-color="#14052e"/>
    </linearGradient>
    <radialGradient id="glow" cx="74%" cy="31%" r="46%">
      <stop offset="0" stop-color="#fff7ff"/>
      <stop offset="0.1" stop-color="#ff8cf0"/>
      <stop offset="0.45" stop-color="#8f66ff" stop-opacity="0.55"/>
      <stop offset="1" stop-color="#000" stop-opacity="0"/>
    </radialGradient>
    <filter id="soft">
      <feGaussianBlur stdDeviation="5"/>
    </filter>
  </defs>
  <rect width="1200" height="720" fill="url(#sky)"/>
  <rect width="1200" height="720" fill="url(#glow)"/>
  <g filter="url(#soft)" opacity="0.92">
    <path d="M-120 382 C145 234 290 288 455 188 C623 84 806 86 1325 6 L1325 188 C890 220 720 328 560 358 C356 396 160 464 -120 612 Z" fill="#ffd8ff" opacity="0.62"/>
    <path d="M-100 426 C220 322 378 355 544 252 C760 118 862 148 1300 70 L1300 182 C890 238 775 330 598 378 C390 434 185 506 -100 644 Z" fill="#7758ff" opacity="0.42"/>
    <path d="M394 310 C558 214 720 182 1085 112 C972 238 720 360 484 410 C395 430 316 422 250 388 C300 382 348 354 394 310 Z" fill="#1a124d" opacity="0.44"/>
  </g>
  <g fill="#fff" opacity="0.88">
    <circle cx="28" cy="74" r="2"/>
    <circle cx="112" cy="36" r="1.4"/>
    <circle cx="214" cy="118" r="1.5"/>
    <circle cx="332" cy="64" r="1.4"/>
    <circle cx="490" cy="98" r="1.7"/>
    <circle cx="650" cy="52" r="1.2"/>
    <circle cx="834" cy="88" r="2.4"/>
    <circle cx="1036" cy="68" r="1.4"/>
    <circle cx="1120" cy="190" r="1.6"/>
    <circle cx="988" cy="460" r="1.5"/>
    <circle cx="760" cy="520" r="1.7"/>
    <circle cx="610" cy="612" r="1.5"/>
    <circle cx="190" cy="562" r="1.2"/>
  </g>
  <g fill="#9ff8ff" opacity="0.85">
    <circle cx="72" cy="488" r="3"/>
    <circle cx="304" cy="475" r="2.5"/>
    <circle cx="604" cy="388" r="2.8"/>
    <circle cx="942" cy="352" r="3"/>
    <circle cx="1092" cy="404" r="2.4"/>
  </g>
  <path d="M880 150 l18 46 46 18 -46 18 -18 46 -18 -46 -46 -18 46 -18z" fill="#fff" opacity="0.9"/>
</svg>
