<svg xmlns="http://www.w3.org/2000/svg" viewBox="0 0 1600 1000" preserveAspectRatio="xMidYMid slice">
  <defs>
    <radialGradient id="bg" cx="63%" cy="35%" r="78%">
      <stop offset="0" stop-color="#1b0a35"/>
      <stop offset="0.38" stop-color="#080b1d"/>
      <stop offset="1" stop-color="#010208"/>
    </radialGradient>
    <radialGradient id="planetShade" cx="62%" cy="45%" r="58%">
      <stop offset="0" stop-color="#35214a"/>
      <stop offset="0.36" stop-color="#101528"/>
      <stop offset="0.66" stop-color="#050712"/>
      <stop offset="1" stop-color="#010208"/>
    </radialGradient>
    <radialGradient id="planetRim" cx="72%" cy="37%" r="42%">
      <stop offset="0" stop-color="#ff6bd7"/>
      <stop offset="0.08" stop-color="#d44cff"/>
      <stop offset="0.2" stop-color="#552164" stop-opacity="0.6"/>
      <stop offset="1" stop-color="#000" stop-opacity="0"/>
    </radialGradient>
    <filter id="softBlur"><feGaussianBlur stdDeviation="5"/></filter>
    <filter id="wideBlur"><feGaussianBlur stdDeviation="16"/></filter>
  </defs>

  <rect width="1600" height="1000" fill="url(#bg)"/>
  <g opacity="0.85">
    <circle cx="598" cy="526" r="302" fill="url(#planetShade)"/>
    <circle cx="598" cy="526" r="308" fill="url(#planetRim)" filter="url(#softBlur)"/>
    <path d="M760 244 C870 374 870 612 723 772 C885 690 930 418 760 244Z" fill="#ff4db4" opacity="0.42" filter="url(#wideBlur)"/>
  </g>
  <g opacity="0.75">
    <circle cx="618" cy="390" r="18" fill="#060914" stroke="#331b4b"/>
    <circle cx="640" cy="600" r="38" fill="#050711" stroke="#6d2b82"/>
  </g>

  <g fill="#fff">
    <circle cx="196" cy="70" r="1.4" opacity="0.8"/>
    <circle cx="420" cy="126" r="1.6" opacity="0.7"/>
    <circle cx="604" cy="95" r="1.1" opacity="0.7"/>
    <circle cx="872" cy="74" r="1.2" opacity="0.8"/>
    <circle cx="1115" cy="112" r="1.5" opacity="0.7"/>
    <circle cx="1350" cy="196" r="1.2" opacity="0.7"/>
    <circle cx="1210" cy="642" r="1.8" opacity="0.9"/>
    <circle cx="992" cy="686" r="1.3" opacity="0.75"/>
    <circle cx="792" cy="730" r="1.5" opacity="0.65"/>
    <circle cx="1465" cy="98" r="1.3" opacity="0.8"/>
  </g>
  <g fill="#ff4db4">
    <circle cx="100" cy="246" r="2.2" opacity="0.85"/>
    <circle cx="318" cy="612" r="2.4" opacity="0.85"/>
    <circle cx="1220" cy="190" r="2.5" opacity="0.9"/>
    <circle cx="1418" cy="316" r="2.1" opacity="0.8"/>
    <circle cx="842" cy="774" r="2.2" opacity="0.7"/>
  </g>

  <path d="M0 712 C150 665 300 710 480 668 C650 628 780 686 930 620 C1095 548 1278 560 1600 610 L1600 1000 L0 1000Z" fill="#03040b"/>
  <path d="M0 840 C180 785 340 805 520 760 C680 720 820 778 1000 712 C1180 646 1360 682 1600 742 L1600 1000 L0 1000Z" fill="#060612"/>
  <path d="M0 900 C260 828 440 892 650 820 C815 764 960 823 1160 760 C1330 708 1450 782 1600 805 L1600 1000 L0 1000Z" fill="#02030a"/>
</svg>
